<svg width="20" height="20" viewBox="0 0 20 20" fill="none" xmlns="http://www.w3.org/2000/svg">
<path d="M10.0001 18.3334C8.86119 18.3334 7.7848 18.1145 6.77091 17.6767C5.75703 17.2395 4.87175 16.6423 4.11508 15.8851C3.35786 15.1284 2.76064 14.2431 2.32341 13.2292C1.88564 12.2154 1.66675 11.139 1.66675 10.0001C1.66675 8.8473 1.88564 7.76758 2.32341 6.76091C2.76064 5.75369 3.35786 4.87175 4.11508 4.11508C4.87175 3.35786 5.75703 2.76036 6.77091 2.32258C7.7848 1.88536 8.86119 1.66675 10.0001 1.66675C11.1529 1.66675 12.2326 1.88536 13.2392 2.32258C14.2465 2.76036 15.1284 3.35786 15.8851 4.11508C16.6423 4.87175 17.2395 5.75369 17.6767 6.76091C18.1145 7.76758 18.3334 8.8473 18.3334 10.0001V11.2084C18.3334 12.0279 18.0523 12.7256 17.4901 13.3017C16.9273 13.8784 16.2362 14.1667 15.4167 14.1667C14.9167 14.1667 14.4515 14.0556 14.0209 13.8334C13.5904 13.6112 13.2362 13.3195 12.9584 12.9584C12.5834 13.3334 12.1426 13.6287 11.6359 13.8442C11.1287 14.0592 10.5834 14.1667 10.0001 14.1667C8.8473 14.1667 7.8648 13.7604 7.05258 12.9476C6.2398 12.1354 5.83341 11.1529 5.83341 10.0001C5.83341 8.8473 6.2398 7.86452 7.05258 7.05175C7.8648 6.23952 8.8473 5.83341 10.0001 5.83341C11.1529 5.83341 12.1356 6.23952 12.9484 7.05175C13.7606 7.86452 14.1667 8.8473 14.1667 10.0001V11.2084C14.1667 11.6112 14.2917 11.927 14.5417 12.1559C14.7917 12.3854 15.0834 12.5001 15.4167 12.5001C15.7501 12.5001 16.0417 12.3854 16.2917 12.1559C16.5417 11.927 16.6667 11.6112 16.6667 11.2084V10.0001C16.6667 8.18064 16.0104 6.61452 14.6976 5.30175C13.3854 3.98953 11.8195 3.33341 10.0001 3.33341C8.18064 3.33341 6.61452 3.98953 5.30175 5.30175C3.98953 6.61452 3.33341 8.18064 3.33341 10.0001C3.33341 11.8195 3.98953 13.3854 5.30175 14.6976C6.61452 16.0104 8.18064 16.6667 10.0001 16.6667H14.1667V18.3334H10.0001ZM10.0001 12.5001C10.6945 12.5001 11.2848 12.257 11.7709 11.7709C12.257 11.2848 12.5001 10.6945 12.5001 10.0001C12.5001 9.30564 12.257 8.71536 11.7709 8.22925C11.2848 7.74314 10.6945 7.50008 10.0001 7.50008C9.30564 7.50008 8.71536 7.74314 8.22925 8.22925C7.74314 8.71536 7.50008 9.30564 7.50008 10.0001C7.50008 10.6945 7.74314 11.2848 8.22925 11.7709C8.71536 12.257 9.30564 12.5001 10.0001 12.5001Z" fill="#898989"/>
</svg>
